<svg width="57" height="39" viewBox="0 0 57 39" fill="none" xmlns="http://www.w3.org/2000/svg">
<path d="M3.36 14.3L2 0.3H4.36L4.78 9.62L4.86 11.06H4.96L5.46 0.3H7.8L6.44 14.3H3.36Z" fill="white"/>
<path d="M12.3161 2.18H10.5961V6.38H12.1961V8.26H10.5961V12.4H12.4961V14.3H8.25609V0.3H12.3161V2.18Z" fill="white"/>
<path d="M15.7812 0.3C16.6746 0.3 17.3879 0.573333 17.9213 1.12C18.4679 1.65333 18.7413 2.44 18.7413 3.48V5.3C18.7413 5.9 18.6146 6.4 18.3612 6.8C18.1212 7.2 17.7679 7.48 17.3013 7.64V7.72C17.7679 7.86667 18.1212 8.14667 18.3612 8.56C18.6146 8.96 18.7413 9.46 18.7413 10.06V12.32C18.7413 12.72 18.7479 13.06 18.7612 13.34C18.7879 13.6067 18.8346 13.9 18.9013 14.22V14.3H16.5413C16.4746 13.94 16.4279 13.62 16.4013 13.34C16.3879 13.06 16.3813 12.72 16.3813 12.32V9.44C16.3813 8.90667 16.1813 8.64 15.7812 8.64H15.3813V14.3H13.0413V0.3H15.7812ZM15.3813 6.74H15.7812C16.1813 6.74 16.3813 6.46667 16.3813 5.92V2.98C16.3813 2.44667 16.1813 2.18 15.7812 2.18H15.3813V6.74Z" fill="white"/>
<path d="M22.7284 2.68C22.7284 2.14667 22.5618 1.88 22.2284 1.88C21.8951 1.88 21.7284 2.14667 21.7284 2.68V11.88C21.7284 12.4267 21.8951 12.7 22.2284 12.7C22.5618 12.7 22.7284 12.4267 22.7284 11.88V9.12H25.0884V11.56C25.0884 12.6 24.8284 13.3667 24.3084 13.86C23.7884 14.3533 23.0951 14.6 22.2284 14.6C21.3751 14.6 20.6884 14.3533 20.1684 13.86C19.6484 13.3667 19.3884 12.6 19.3884 11.56V3.02C19.3884 1.98 19.6484 1.22 20.1684 0.74C20.6884 0.246667 21.3751 0 22.2284 0C23.0951 0 23.7884 0.246667 24.3084 0.74C24.8284 1.22 25.0884 1.98 25.0884 3.02V5.44H22.7284V2.68Z" fill="white"/>
<path d="M29.8356 2.18H28.1156V6.38H29.7156V8.26H28.1156V12.4H30.0156V14.3H25.7756V0.3H29.8356V2.18Z" fill="white"/>
<path d="M32.9008 0.3V12.4H34.6008V14.3H30.5608V0.3H32.9008Z" fill="white"/>
<path d="M35.3492 11.92H37.8092V14.3H35.3492V11.92Z" fill="white"/>
<path d="M44.2062 14.3H41.8662L41.7062 11.14H40.9062L40.7663 14.3H38.4062L39.7663 0.3H42.8462L44.2062 14.3ZM41.6263 9.26L41.3662 3.54H41.2663L40.9863 9.26H41.6263Z" fill="white"/>
<path d="M50.3037 6.26C50.3037 7.3 50.0304 8.09333 49.4837 8.64C48.9504 9.17333 48.2371 9.44 47.3438 9.44H46.9437V14.3H44.6037V0.3H47.3438C48.2371 0.3 48.9504 0.566667 49.4837 1.1C50.0304 1.63333 50.3037 2.42 50.3037 3.46V6.26ZM47.9437 2.98C47.9437 2.44667 47.7438 2.18 47.3438 2.18H46.9437V7.56H47.3438C47.7438 7.56 47.9437 7.28667 47.9437 6.74V2.98Z" fill="white"/>
<path d="M56.6905 6.26C56.6905 7.3 56.4171 8.09333 55.8705 8.64C55.3371 9.17333 54.6238 9.44 53.7305 9.44H53.3305V14.3H50.9905V0.3H53.7305C54.6238 0.3 55.3371 0.566667 55.8705 1.1C56.4171 1.63333 56.6905 2.42 56.6905 3.46V6.26ZM54.3305 2.98C54.3305 2.44667 54.1305 2.18 53.7305 2.18H53.3305V7.56H53.7305C54.1305 7.56 54.3305 7.28667 54.3305 6.74V2.98Z" fill="white"/>
<path d="M8.36 29.3H5.26L4.84 18.6H4.74L4.66 20.06L4.26 29.3H1.16L0 15.3H2.36L2.64 25.1L2.66 26.52H2.76L3.36 15.3H6.2L6.76 25.1L6.82 26.52H6.92L7.2 15.3H9.54L8.36 29.3Z" fill="white"/>
<path d="M14.0661 17.18H12.3461V21.38H13.9461V23.26H12.3461V27.4H14.2461V29.3H10.0061V15.3H14.0661V17.18Z" fill="white"/>
<path d="M20.4312 19.6C20.4312 20.9067 19.9579 21.7267 19.0112 22.06V22.12C19.4912 22.2667 19.8579 22.5533 20.1112 22.98C20.3646 23.4067 20.4913 23.94 20.4913 24.58V26.26C20.4913 27.3 20.2179 28.0733 19.6713 28.58C19.1379 29.0733 18.4246 29.32 17.5312 29.32H14.7913V15.3H17.5112C18.3912 15.3 19.0979 15.5467 19.6313 16.04C20.1646 16.52 20.4312 17.28 20.4312 18.32V19.6ZM18.0912 18C18.0912 17.4667 17.8979 17.2 17.5112 17.2H17.1313V21.16H17.4913C17.7179 21.16 17.8712 21.0933 17.9513 20.96C18.0446 20.8267 18.0912 20.5867 18.0912 20.24V18ZM18.1313 23.94C18.1313 23.34 17.9179 23.04 17.4913 23.04H17.1313V27.42H17.5312C17.9313 27.42 18.1313 27.1467 18.1313 26.6V23.94Z" fill="white"/>
<path d="M24.3422 19.84V17.68C24.3422 17.3867 24.3022 17.18 24.2222 17.06C24.1422 16.94 24.0222 16.88 23.8622 16.88C23.6889 16.88 23.5622 16.94 23.4822 17.06C23.4022 17.18 23.3622 17.3867 23.3622 17.68V19.06C23.3622 19.5267 23.4955 19.9533 23.7622 20.34C24.0289 20.7133 24.3422 21.0933 24.7022 21.48C24.9289 21.72 25.1622 21.9733 25.4022 22.24C25.6422 22.5067 25.8555 22.8 26.0422 23.12C26.2422 23.4267 26.4022 23.7667 26.5222 24.14C26.6422 24.5133 26.7022 24.9267 26.7022 25.38V26.56C26.7022 27.5733 26.4422 28.3333 25.9222 28.84C25.4155 29.3467 24.7222 29.6 23.8422 29.6C22.9622 29.6 22.2622 29.3467 21.7422 28.84C21.2355 28.3333 20.9822 27.5733 20.9822 26.56V24.72H23.3422V26.88C23.3422 27.1867 23.3822 27.4 23.4622 27.52C23.5422 27.64 23.6689 27.7 23.8422 27.7C24.0155 27.7 24.1422 27.64 24.2222 27.52C24.3155 27.4 24.3622 27.1867 24.3622 26.88V25.5C24.3622 25.02 24.1889 24.56 23.8422 24.12C23.5089 23.6667 23.1355 23.2267 22.7222 22.8C22.5089 22.5733 22.2955 22.34 22.0822 22.1C21.8822 21.8467 21.7022 21.58 21.5422 21.3C21.3822 21.0067 21.2489 20.6933 21.1422 20.36C21.0489 20.0133 21.0022 19.64 21.0022 19.24V18.02C21.0022 17.0067 21.2555 16.2533 21.7622 15.76C22.2689 15.2533 22.9622 15 23.8422 15C24.7222 15 25.4155 15.2533 25.9222 15.76C26.4289 16.2533 26.6822 17.0067 26.6822 18.02V19.84H24.3422Z" fill="white"/>
<path d="M29.8289 29.3H27.4889V15.3H29.8289V29.3Z" fill="white"/>
<path d="M35.8906 17.18H34.3906V29.3H32.0506V17.18H30.5506V15.3H35.8906V17.18Z" fill="white"/>
<path d="M40.57 17.18H38.85V21.38H40.45V23.26H38.85V27.4H40.75V29.3H36.51V15.3H40.57V17.18Z" fill="white"/>
<path d="M12.308 38.12C12.372 38.152 12.44 38.18 12.512 38.204C12.592 38.22 12.708 38.228 12.86 38.228C13.212 38.228 13.5 38.124 13.724 37.916C13.956 37.7 14.072 37.392 14.072 36.992C14.072 36.744 14.024 36.5 13.928 36.26C13.84 36.012 13.68 35.728 13.448 35.408C13.264 35.152 13.088 34.892 12.92 34.628C12.752 34.356 12.668 34.036 12.668 33.668C12.668 33.324 12.752 33.028 12.92 32.78C13.088 32.524 13.312 32.324 13.592 32.18C13.88 32.036 14.192 31.964 14.528 31.964C14.76 31.964 14.988 31.992 15.212 32.048C15.436 32.104 15.62 32.208 15.764 32.36C15.916 32.504 15.992 32.72 15.992 33.008C15.992 33.08 15.972 33.168 15.932 33.272C15.9 33.368 15.844 33.452 15.764 33.524C15.684 33.596 15.576 33.632 15.44 33.632C15.312 33.632 15.2 33.588 15.104 33.5C15.008 33.404 14.96 33.28 14.96 33.128C14.96 32.984 14.988 32.848 15.044 32.72C15.108 32.584 15.192 32.452 15.296 32.324C15.144 32.228 14.944 32.18 14.696 32.18C14.4 32.18 14.152 32.28 13.952 32.48C13.752 32.68 13.652 32.96 13.652 33.32C13.652 33.504 13.68 33.668 13.736 33.812C13.792 33.948 13.872 34.092 13.976 34.244C14.088 34.396 14.22 34.588 14.372 34.82C14.572 35.124 14.74 35.416 14.876 35.696C15.012 35.976 15.08 36.272 15.08 36.584C15.08 36.952 14.984 37.28 14.792 37.568C14.608 37.848 14.36 38.068 14.048 38.228C13.736 38.388 13.392 38.468 13.016 38.468C12.744 38.468 12.484 38.428 12.236 38.348C11.988 38.268 11.784 38.144 11.624 37.976C11.472 37.8 11.396 37.568 11.396 37.28C11.396 37.168 11.432 37.052 11.504 36.932C11.568 36.804 11.688 36.74 11.864 36.74C12.056 36.74 12.192 36.82 12.272 36.98C12.352 37.132 12.392 37.304 12.392 37.496C12.392 37.624 12.38 37.74 12.356 37.844C12.34 37.94 12.324 38.032 12.308 38.12Z" fill="white"/>
<path d="M20.6703 32.132L20.6343 32.372H16.9023L16.9623 32.132H20.6703ZM17.6223 37.28C17.5503 37.544 17.5663 37.736 17.6703 37.856C17.7823 37.968 17.9263 38.024 18.1023 38.024C18.2783 38.024 18.4543 37.948 18.6303 37.796C18.8143 37.644 18.9943 37.32 19.1703 36.824L19.3383 36.356H19.5663L19.3143 37.112C19.1383 37.632 18.9103 37.988 18.6303 38.18C18.3583 38.372 18.0383 38.468 17.6703 38.468C17.3423 38.468 17.0903 38.4 16.9143 38.264C16.7463 38.12 16.6463 37.92 16.6143 37.664C16.5823 37.408 16.6143 37.116 16.7103 36.788L18.5703 30.308C18.7623 30.3 18.9503 30.284 19.1343 30.26C19.3263 30.236 19.4983 30.196 19.6503 30.14L17.6223 37.28Z" fill="white"/>
<path d="M24.9656 34.148C24.6776 34.948 24.4016 35.624 24.1376 36.176C23.8736 36.728 23.6096 37.172 23.3456 37.508C23.0896 37.844 22.8256 38.088 22.5536 38.24C22.2896 38.392 22.0136 38.468 21.7256 38.468C21.3736 38.468 21.1176 38.388 20.9576 38.228C20.7976 38.068 20.7176 37.852 20.7176 37.58C20.7176 37.308 20.7736 37 20.8856 36.656L22.0496 33.152C22.1296 32.912 22.1576 32.728 22.1336 32.6C22.1096 32.472 22.0176 32.408 21.8576 32.408C21.7056 32.408 21.5536 32.492 21.4016 32.66C21.2576 32.828 21.1016 33.152 20.9336 33.632L20.7776 34.076H20.5496L20.8496 33.2C20.9696 32.864 21.1096 32.608 21.2696 32.432C21.4376 32.256 21.6096 32.136 21.7856 32.072C21.9696 32 22.1416 31.964 22.3016 31.964C22.6536 31.964 22.8856 32.048 22.9976 32.216C23.1176 32.376 23.1616 32.584 23.1296 32.84C23.1056 33.096 23.0456 33.364 22.9496 33.644L21.8096 37.076C21.5856 37.748 21.6736 38.084 22.0736 38.084C22.2656 38.084 22.4696 38 22.6856 37.832C22.9016 37.656 23.1216 37.408 23.3456 37.088C23.5696 36.76 23.7896 36.372 24.0056 35.924C24.2296 35.468 24.4416 34.964 24.6416 34.412C24.8496 33.852 25.0376 33.252 25.2056 32.612L24.9656 34.148ZM24.9296 37.28C24.8736 37.496 24.8456 37.676 24.8456 37.82C24.8536 37.956 24.9376 38.024 25.0976 38.024C25.2736 38.024 25.4336 37.932 25.5776 37.748C25.7296 37.556 25.8816 37.24 26.0336 36.8L26.1896 36.356H26.4176L26.1176 37.232C26.0056 37.568 25.8656 37.824 25.6976 38C25.5376 38.176 25.3656 38.296 25.1816 38.36C25.0056 38.432 24.8336 38.468 24.6656 38.468C24.5376 38.468 24.4176 38.44 24.3056 38.384C24.1936 38.328 24.1096 38.248 24.0536 38.144C23.9896 38.008 23.9656 37.836 23.9816 37.628C24.0056 37.42 24.0616 37.14 24.1496 36.788L25.3256 32.132C25.5256 32.124 25.7176 32.108 25.9016 32.084C26.0936 32.06 26.2656 32.02 26.4176 31.964L24.9296 37.28Z" fill="white"/>
<path d="M31.4382 37.28C31.3822 37.464 31.3582 37.636 31.3662 37.796C31.3822 37.948 31.4782 38.024 31.6542 38.024C31.8142 38.024 31.9622 37.936 32.0982 37.76C32.2342 37.576 32.3782 37.256 32.5302 36.8L32.6742 36.356H32.9022L32.6262 37.232C32.5302 37.552 32.4022 37.804 32.2422 37.988C32.0822 38.164 31.9142 38.288 31.7382 38.36C31.5622 38.432 31.3942 38.468 31.2342 38.468C30.7542 38.468 30.5022 38.24 30.4782 37.784C30.4702 37.656 30.4782 37.508 30.5022 37.34C30.5342 37.172 30.5782 36.988 30.6342 36.788L32.4 30.3C32.472 30.028 32.996 28.028 32.9 27.9C32.804 27.772 32.792 28.8 32.4 28.8C32.84 28.792 32.564 28.38 32.9 28.3C33.236 28.212 33.4862 28.912 33.7902 28.76L31.4382 37.28ZM28.7502 38.084C28.9502 38.084 29.1742 37.968 29.4222 37.736C29.6782 37.496 29.9342 37.176 30.1902 36.776C30.4542 36.368 30.6942 35.908 30.9102 35.396C31.1342 34.876 31.3102 34.34 31.4382 33.788L31.2582 35.084C30.9462 35.908 30.6342 36.568 30.3222 37.064C30.0182 37.56 29.7062 37.92 29.3862 38.144C29.0742 38.36 28.7462 38.468 28.4022 38.468C28.1542 38.468 27.9342 38.412 27.7422 38.3C27.5582 38.18 27.4142 38.004 27.3102 37.772C27.2062 37.54 27.1542 37.244 27.1542 36.884C27.1542 36.5 27.2142 36.088 27.3342 35.648C27.4622 35.2 27.6422 34.76 27.8742 34.328C28.1062 33.896 28.3822 33.504 28.7022 33.152C29.0302 32.792 29.3902 32.504 29.7822 32.288C30.1742 32.072 30.5902 31.964 31.0302 31.964C31.2142 31.964 31.3862 32.036 31.5462 32.18C31.7062 32.316 31.7942 32.524 31.8102 32.804L31.7142 33.044C31.6822 32.756 31.6022 32.552 31.4742 32.432C31.3462 32.304 31.2022 32.24 31.0422 32.24C30.7382 32.24 30.4422 32.344 30.1542 32.552C29.8742 32.76 29.6182 33.036 29.3862 33.38C29.1542 33.724 28.9502 34.108 28.7742 34.532C28.5982 34.948 28.4622 35.376 28.3662 35.816C28.2702 36.248 28.2222 36.656 28.2222 37.04C28.2222 37.392 28.2662 37.656 28.3542 37.832C28.4422 38 28.5742 38.084 28.7502 38.084Z" fill="white"/>
<path d="M35.7821 29.948C35.8221 29.74 35.9261 29.56 36.0941 29.408C36.2701 29.256 36.4581 29.18 36.6581 29.18C36.8661 29.18 37.0261 29.256 37.1381 29.408C37.2581 29.56 37.2981 29.74 37.2581 29.948C37.2181 30.156 37.1101 30.336 36.9341 30.488C36.7661 30.64 36.5781 30.716 36.3701 30.716C36.1701 30.716 36.0101 30.64 35.8901 30.488C35.7781 30.336 35.7421 30.156 35.7821 29.948ZM35.4101 33.152C35.5781 32.656 35.5221 32.408 35.2421 32.408C35.0581 32.408 34.8941 32.508 34.7501 32.708C34.6061 32.908 34.4541 33.216 34.2941 33.632L34.1261 34.076H33.8981L34.2101 33.2C34.3301 32.864 34.4741 32.608 34.6421 32.432C34.8101 32.256 34.9861 32.136 35.1701 32.072C35.3621 32 35.5381 31.964 35.6981 31.964C35.9541 31.964 36.1421 32.016 36.2621 32.12C36.3821 32.224 36.4541 32.36 36.4781 32.528C36.5021 32.696 36.4941 32.88 36.4541 33.08C36.4141 33.272 36.3621 33.46 36.2981 33.644L35.0141 37.28C34.9341 37.512 34.9061 37.696 34.9301 37.832C34.9621 37.96 35.0541 38.024 35.2061 38.024C35.3661 38.024 35.5181 37.936 35.6621 37.76C35.8061 37.584 35.9661 37.264 36.1421 36.8L36.3101 36.356H36.5381L36.2261 37.232C36.1141 37.544 35.9781 37.792 35.8181 37.976C35.6581 38.152 35.4861 38.276 35.3021 38.348C35.1181 38.428 34.9341 38.468 34.7501 38.468C34.4061 38.468 34.1741 38.388 34.0541 38.228C33.9341 38.068 33.8901 37.86 33.9221 37.604C33.9541 37.348 34.0221 37.076 34.1261 36.788L35.4101 33.152Z" fill="white"/>
<path d="M40.7832 32.204C40.5272 32.204 40.2792 32.308 40.0392 32.516C39.8072 32.716 39.5912 32.992 39.3912 33.344C39.1992 33.688 39.0272 34.076 38.8752 34.508C38.7312 34.94 38.6192 35.388 38.5392 35.852C38.4592 36.316 38.4192 36.76 38.4192 37.184C38.4192 37.544 38.4752 37.808 38.5872 37.976C38.7072 38.144 38.8792 38.228 39.1032 38.228C39.3592 38.228 39.6032 38.128 39.8352 37.928C40.0752 37.72 40.2952 37.444 40.4952 37.1C40.6952 36.748 40.8672 36.356 41.0112 35.924C41.1552 35.492 41.2672 35.048 41.3472 34.592C41.4272 34.128 41.4672 33.68 41.4672 33.248C41.4672 32.88 41.4112 32.616 41.2992 32.456C41.1872 32.288 41.0152 32.204 40.7832 32.204ZM37.3872 36.584C37.3872 36.232 37.4352 35.848 37.5312 35.432C37.6272 35.016 37.7712 34.604 37.9632 34.196C38.1552 33.788 38.3872 33.416 38.6592 33.08C38.9392 32.744 39.2632 32.476 39.6312 32.276C39.9992 32.068 40.4072 31.964 40.8552 31.964C41.3512 31.964 41.7472 32.12 42.0432 32.432C42.3472 32.736 42.4992 33.208 42.4992 33.848C42.4992 34.2 42.4512 34.584 42.3552 35C42.2592 35.416 42.1152 35.828 41.9232 36.236C41.7312 36.644 41.4952 37.016 41.2152 37.352C40.9432 37.688 40.6232 37.96 40.2552 38.168C39.8872 38.368 39.4792 38.468 39.0312 38.468C38.5352 38.468 38.1352 38.312 37.8312 38C37.5352 37.688 37.3872 37.216 37.3872 36.584Z" fill="white"/>
</svg>
