<?xml version="1.0" encoding="UTF-8"?>
<svg id="Layer_1" xmlns="http://www.w3.org/2000/svg" width="31.1" height="28.3" xmlns:svg="http://www.w3.org/2000/svg" xmlns:sodipodi="http://sodipodi.sourceforge.net/DTD/sodipodi-0.dtd" xmlns:inkscape="http://www.inkscape.org/namespaces/inkscape" version="1.1" viewBox="0 0 31.1 28.3">
  <!-- Generator: Adobe Illustrator 30.0.0, SVG Export Plug-In . SVG Version: 2.1.1 Build 123)  -->
  <path d="M23.3,9.7c3.5-2,3.5-7,0-9s-7.8.5-7.8,4.5v18c0,4,4.3,6.5,7.8,4.5s3.5-7,0-9c3.5,2,7.8-.5,7.8-4.5s-4.3-6.5-7.8-4.5Z" fill="#e6e1dd"/>
  <path d="M7.8.7c-3.5,2-3.5,7,0,9C4.3,7.7,0,10.2,0,14.2s4.3,6.5,7.8,4.5c-3.5,2-3.5,7,0,9s7.8-.5,7.8-4.5V5.2C15.6,1.2,11.2-1.3,7.8.7Z" fill="#e6e1dd"/>
  <g>
    <path d="M14.3,11.3c-1.2,1.2-3.2,1.2-4.4,0" fill="none" stroke="#1a1a1a" stroke-linecap="round" stroke-miterlimit="10"/>
    <path d="M21.1,11.3c-1.2,1.2-3.2,1.2-4.4,0" fill="none" stroke="#1a1a1a" stroke-linecap="round" stroke-miterlimit="10"/>
  </g>
  <path d="M22.2,14.3c-3.7,3.7-9.6,3.7-13.3,0" fill="none" stroke="#1a1a1a" stroke-linecap="round" stroke-miterlimit="10"/>
</svg>